# xmcd
# 
# Track frame offsets:
#     150
#     23165
#     47092
#     70172
# 
# Disc length: 1254
# 
# Revision: 5
# Processed by: cddbd v1.5.2PL0 Copyright (c) Steve Scherf et al.
# Submitted via: fre:ac v1.0.31
# 
DISCID=2d04e404
DTITLE=茅原実里 - Celestial Diva
DYEAR=2012
DGENRE=JPop
TTITLE0=Celestial Diva
TTITLE1=IDENTITY
TTITLE2=Celestial Diva (off vocal)
TTITLE3=IDENTITY (off vocal)
EXTD=YEAR: 2012
EXTT0=
EXTT1=
EXTT2=
EXTT3=
PLAYORDER=
